# xmcd CD database file
#
# Track frame offsets:
#	150
#	16495
#	35930
#	55257
#	78665
#	99507
#	116972
#	137170
#	151707
#	173875
#	190732
#	207110
#	230910
#	246542
#	262872
#	282115
#
# Disc length: 4128 seconds
#
# Revision: 7
# Processed by: cddbd v1.5.2PL0 Copyright (c) Steve Scherf et al.
# Submitted via: CDex 1.81
#
DISCID=e7101e10
DTITLE=Red Hot Chili Peppers - By The Way
DYEAR=2002
DGENRE=Rock
TTITLE0=By The Way
TTITLE1=Universally Speaking
TTITLE2=This Is The Place
TTITLE3=Dosed
TTITLE4=Don't Forget Me
TTITLE5=The Zephyr Song
TTITLE6=Can't Stop
TTITLE7=I Could Die For You
TTITLE8=Midnight
TTITLE9=Throw Away Your Television
TTITLE10=Cabron
TTITLE11=Tear
TTITLE12=On Mercury
TTITLE13=Minor Thing
TTITLE14=Warm Tape
TTITLE15=Venice Queen
EXTD=YEAR: 2002
EXTT0=
EXTT1=
EXTT2=
EXTT3=
EXTT4=
EXTT5=
EXTT6=
EXTT7=
EXTT8=
EXTT9=
EXTT10=
EXTT11=
EXTT12=
EXTT13=
EXTT14=
EXTT15=
PLAYORDER=
